<svg xmlns="http://www.w3.org/2000/svg" viewBox="0 0 226.14 68.5"><defs><style>.cls-1{opacity:0.49;}.cls-2{fill:#597abc;}</style></defs><g id="图层_2" data-name="图层 2"><g id="图层_1-2" data-name="图层 1"><g class="cls-1"><path class="cls-2" d="M34.33,41.5C19.3,41.5,6.79,30.82,4.73,17a34.29,34.29,0,0,1,59.19-.08C61.86,30.82,49.35,41.5,34.33,41.5ZM67.58,25.86C65.75,29.29,63,33.94,60,36.23c-5,3.89-15,10.3-15,10.3a21.14,21.14,0,0,0-8,16.63,20.86,20.86,0,0,0,.69,5.34A34.31,34.31,0,0,0,67.58,25.86ZM23.49,46.61S13.65,40.2,8.54,36.31C5.57,34,2.82,29.37,1,25.93a37.8,37.8,0,0,0-1,8.4A34.4,34.4,0,0,0,30.82,68.5a20.25,20.25,0,0,0,.68-5.27A21.44,21.44,0,0,0,26.93,50,24.23,24.23,0,0,0,23.49,46.61Z"/></g><path class="cls-2" d="M88.63,40.58V3.6h8.56v30h18.54v7Z"/><path class="cls-2" d="M115.89,40.58l16.48-37h8.45l16.54,37h-9L134.86,7.94h3.38L124.66,40.58Zm8.24-7.92,2.27-6.5h19l2.32,6.5Z"/><path class="cls-2" d="M161.22,40.58V3.6h16a20.72,20.72,0,0,1,8.56,1.62,12.56,12.56,0,0,1,5.55,4.62A12.92,12.92,0,0,1,193.28,17a12.8,12.8,0,0,1-1.95,7.13,12.64,12.64,0,0,1-5.55,4.63,20.89,20.89,0,0,1-8.56,1.61H166l3.8-3.86v14Zm8.55-13.1L166,23.41h10.78q4,0,5.91-1.69a5.85,5.85,0,0,0,2-4.7,5.93,5.93,0,0,0-2-4.75q-1.95-1.69-5.91-1.69H166l3.8-4.07Z"/><path class="cls-2" d="M210.45,40.58a30,30,0,0,1-8.51-1.19,19.87,19.87,0,0,1-6.55-3.09l2.91-6.44a21,21,0,0,0,5.62,2.77,20.77,20.77,0,0,0,6.58,1.09,13.54,13.54,0,0,0,4.1-.51,4.75,4.75,0,0,0,2.29-1.4,3.1,3.1,0,0,0,.74-2.06,2.8,2.8,0,0,0-1.16-2.35A9.47,9.47,0,0,0,213.41,26c-1.27-.37-2.67-.73-4.2-1.06s-3.07-.75-4.6-1.24a19.61,19.61,0,0,1-4.2-1.9,9.35,9.35,0,0,1-3.09-3.07,9,9,0,0,1-1.19-4.86,10.34,10.34,0,0,1,1.72-5.78A11.68,11.68,0,0,1,203,3.89a21.32,21.32,0,0,1,8.69-1.55,29.31,29.31,0,0,1,6.86.81,19.82,19.82,0,0,1,6,2.46l-2.64,6.5a22,22,0,0,0-5.17-2.19,18.93,18.93,0,0,0-5.08-.72,12.13,12.13,0,0,0-4.06.58,4.82,4.82,0,0,0-2.28,1.51,3.55,3.55,0,0,0-.68,2.14,2.75,2.75,0,0,0,1.16,2.3,9.16,9.16,0,0,0,3.06,1.4q1.9.53,4.2,1.05c1.54.36,3.07.76,4.6,1.22a17.72,17.72,0,0,1,4.2,1.85A9.23,9.23,0,0,1,225,24.31a9,9,0,0,1,1.19,4.81,9.91,9.91,0,0,1-1.75,5.7,12.14,12.14,0,0,1-5.2,4.18A21.11,21.11,0,0,1,210.45,40.58Z"/><path class="cls-2" d="M88.63,52.48v-9.8H90.9v8h4.91v1.85Z"/><path class="cls-2" d="M100.9,52.59a4.84,4.84,0,0,1-2.27-.5,3.83,3.83,0,0,1-.07-6.76,4.21,4.21,0,0,1,2.06-.49,4.12,4.12,0,0,1,2,.47A3.56,3.56,0,0,1,104,46.65a4.07,4.07,0,0,1,.52,2.09c0,.09,0,.18,0,.29s0,.21,0,.3H98.38V48.06h5l-.84.38a2.09,2.09,0,0,0-.24-1,1.8,1.8,0,0,0-.66-.68,2,2,0,0,0-1-.24,2,2,0,0,0-1,.24,1.82,1.82,0,0,0-.66.69,2.13,2.13,0,0,0-.24,1v.34A2.11,2.11,0,0,0,99,49.88a1.73,1.73,0,0,0,.77.72,2.66,2.66,0,0,0,1.17.24,2.87,2.87,0,0,0,1.06-.18,2.58,2.58,0,0,0,.83-.54L104,51.38a3.37,3.37,0,0,1-1.3.9A4.78,4.78,0,0,1,100.9,52.59Z"/><path class="cls-2" d="M108.39,52.59a3.52,3.52,0,0,1-1.52-.3,2.22,2.22,0,0,1-1-.82,2,2,0,0,1-.34-1.16,2.06,2.06,0,0,1,.33-1.17,2.22,2.22,0,0,1,1-.8,5.15,5.15,0,0,1,1.87-.28h2v1.27H109a1.67,1.67,0,0,0-1.05.25.82.82,0,0,0-.29.63.8.8,0,0,0,.33.67,1.5,1.5,0,0,0,.9.24,1.8,1.8,0,0,0,1-.26,1.44,1.44,0,0,0,.63-.76l.34,1a2,2,0,0,1-.87,1.11A3.13,3.13,0,0,1,108.39,52.59Zm2.29-.11V51l-.14-.32V48.06a1.41,1.41,0,0,0-.42-1.09,1.87,1.87,0,0,0-1.31-.4,4,4,0,0,0-1.19.19,3.36,3.36,0,0,0-1,.51l-.79-1.52a4.53,4.53,0,0,1,1.49-.67,6.5,6.5,0,0,1,1.76-.24,4,4,0,0,1,2.67.81,3.14,3.14,0,0,1,1,2.53v4.3Z"/><path class="cls-2" d="M116.88,52.48,113.72,45H116l2.64,6.48h-1.12L120.22,45h2.1l-3.18,7.53Z"/><path class="cls-2" d="M127,52.59a4.8,4.8,0,0,1-2.26-.5,3.84,3.84,0,0,1-.08-6.76,4.27,4.27,0,0,1,2.06-.49,4.16,4.16,0,0,1,2,.47,3.47,3.47,0,0,1,1.4,1.34,4,4,0,0,1,.52,2.09c0,.09,0,.18,0,.29l0,.3H124.5V48.06h5l-.84.38a2.09,2.09,0,0,0-.24-1,1.8,1.8,0,0,0-.66-.68,1.92,1.92,0,0,0-1-.24,2,2,0,0,0-1,.24,1.78,1.78,0,0,0-.67.69,2.13,2.13,0,0,0-.24,1v.34a2.12,2.12,0,0,0,.28,1.08,1.73,1.73,0,0,0,.77.72,2.66,2.66,0,0,0,1.17.24,2.82,2.82,0,0,0,1-.18,2.62,2.62,0,0,0,.84-.54l1.16,1.26a3.45,3.45,0,0,1-1.3.9A4.87,4.87,0,0,1,127,52.59Z"/><path class="cls-2" d="M138.29,52.48l4.37-9.8h2.24l4.38,9.8H146.9l-3.58-8.65h.89l-3.6,8.65Zm2.18-2.1.61-1.72h5l.61,1.72Z"/><path class="cls-2" d="M150.43,55.2V45h2.08v1.54l0,2.24.14,2.23V55.2Zm4.45-2.61a3.26,3.26,0,0,1-1.67-.42,2.81,2.81,0,0,1-1.11-1.28,5.26,5.26,0,0,1-.4-2.17,5.48,5.48,0,0,1,.38-2.19,2.69,2.69,0,0,1,1.09-1.27,3.33,3.33,0,0,1,1.71-.42,3.79,3.79,0,0,1,1.91.48,3.48,3.48,0,0,1,1.34,1.35,4.45,4.45,0,0,1,0,4.1,3.48,3.48,0,0,1-1.34,1.35A3.89,3.89,0,0,1,154.88,52.59Zm-.38-1.79a1.8,1.8,0,0,0,1.66-1,2.3,2.3,0,0,0,.26-1.11,2.26,2.26,0,0,0-.26-1.12,1.95,1.95,0,0,0-2.64-.72,1.75,1.75,0,0,0-.68.72,2.26,2.26,0,0,0-.26,1.12,2.3,2.3,0,0,0,.26,1.11,1.75,1.75,0,0,0,.68.72A1.91,1.91,0,0,0,154.5,50.8Z"/><path class="cls-2" d="M160.37,55.2V45h2.08v1.54l0,2.24.14,2.23V55.2Zm4.45-2.61a3.24,3.24,0,0,1-1.67-.42A2.81,2.81,0,0,1,162,50.89a5.1,5.1,0,0,1-.4-2.17,5.48,5.48,0,0,1,.38-2.19,2.69,2.69,0,0,1,1.09-1.27,3.33,3.33,0,0,1,1.71-.42,3.79,3.79,0,0,1,1.91.48,3.48,3.48,0,0,1,1.34,1.35,4.45,4.45,0,0,1,0,4.1,3.48,3.48,0,0,1-1.34,1.35A3.89,3.89,0,0,1,164.82,52.59Zm-.38-1.79a1.82,1.82,0,0,0,1-.25,1.84,1.84,0,0,0,.69-.72,2.3,2.3,0,0,0,.26-1.11,2.26,2.26,0,0,0-.26-1.12,1.84,1.84,0,0,0-.69-.72,1.82,1.82,0,0,0-1-.25,1.91,1.91,0,0,0-1,.25,1.75,1.75,0,0,0-.68.72,2.26,2.26,0,0,0-.26,1.12,2.3,2.3,0,0,0,.26,1.11,1.75,1.75,0,0,0,.68.72A1.91,1.91,0,0,0,164.44,50.8Z"/><path class="cls-2" d="M170.31,52.48V42.09h2.18V52.48Z"/><path class="cls-2" d="M175.89,43.9a1.42,1.42,0,0,1-1-.35,1.13,1.13,0,0,1-.37-.87,1.16,1.16,0,0,1,.37-.87,1.42,1.42,0,0,1,1-.35,1.43,1.43,0,0,1,1,.33,1,1,0,0,1,.38.85,1.19,1.19,0,0,1-.37.9A1.37,1.37,0,0,1,175.89,43.9Zm-1.09,8.58V45H177v7.53Z"/><path class="cls-2" d="M182.94,52.59a4.6,4.6,0,0,1-2.17-.49,3.71,3.71,0,0,1-1.5-1.38,3.76,3.76,0,0,1-.53-2,3.73,3.73,0,0,1,.53-2,3.78,3.78,0,0,1,1.5-1.38,4.6,4.6,0,0,1,2.17-.49,4.17,4.17,0,0,1,2.07.49,3.06,3.06,0,0,1,1.3,1.43l-1.69.91a2,2,0,0,0-.74-.79,1.86,1.86,0,0,0-1-.25,2,2,0,0,0-1,.25,1.8,1.8,0,0,0-.7.72,2.16,2.16,0,0,0-.26,1.12,2.21,2.21,0,0,0,.26,1.12,1.84,1.84,0,0,0,.7.71,2,2,0,0,0,1,.25,2,2,0,0,0,1-.24,2,2,0,0,0,.74-.79l1.69.92A3,3,0,0,1,185,52.1,4.17,4.17,0,0,1,182.94,52.59Z"/><path class="cls-2" d="M190.17,52.59a3.51,3.51,0,0,1-1.51-.3,2.31,2.31,0,0,1-1-.82,2.1,2.1,0,0,1-.33-1.16,2.06,2.06,0,0,1,.33-1.17,2.22,2.22,0,0,1,1-.8,5.13,5.13,0,0,1,1.86-.28h2v1.27h-1.76a1.71,1.71,0,0,0-1.06.25.85.85,0,0,0,0,1.3,1.5,1.5,0,0,0,.9.24,1.82,1.82,0,0,0,1-.26,1.44,1.44,0,0,0,.63-.76l.34,1a2,2,0,0,1-.87,1.11A3.15,3.15,0,0,1,190.17,52.59Zm2.3-.11V51l-.14-.32V48.06A1.38,1.38,0,0,0,191.9,47a1.83,1.83,0,0,0-1.31-.4,4,4,0,0,0-1.18.19,3.3,3.3,0,0,0-1,.51l-.78-1.52a4.48,4.48,0,0,1,1.48-.67,6.63,6.63,0,0,1,1.77-.24,4,4,0,0,1,2.67.81,3.13,3.13,0,0,1,.95,2.53v4.3Z"/><path class="cls-2" d="M195.87,46.8V45.12h5.22V46.8Zm4,5.79a3,3,0,0,1-2.08-.68,2.61,2.61,0,0,1-.74-2V43.28h2.19v6.58a1,1,0,0,0,.25.74.91.91,0,0,0,.68.26,1.47,1.47,0,0,0,.89-.28l.58,1.54a2.16,2.16,0,0,1-.8.35A3.91,3.91,0,0,1,199.85,52.59Z"/><path class="cls-2" d="M204.23,43.9a1.4,1.4,0,0,1-1-.35,1.14,1.14,0,0,1-.38-.87,1.17,1.17,0,0,1,.38-.87,1.4,1.4,0,0,1,1-.35,1.43,1.43,0,0,1,1,.33,1.08,1.08,0,0,1,.38.85,1.23,1.23,0,0,1-.37.9A1.37,1.37,0,0,1,204.23,43.9Zm-1.09,8.58V45h2.18v7.53Z"/><path class="cls-2" d="M211.21,52.59a4.35,4.35,0,0,1-2.13-.5,3.91,3.91,0,0,1-1.47-1.38,4,4,0,0,1,0-4,3.83,3.83,0,0,1,1.47-1.38,4.87,4.87,0,0,1,4.26,0,3.82,3.82,0,0,1,0,6.76A4.35,4.35,0,0,1,211.21,52.59Zm0-1.79a1.88,1.88,0,0,0,1-.25,1.84,1.84,0,0,0,.69-.72,2.3,2.3,0,0,0,.25-1.11,2.26,2.26,0,0,0-.25-1.12,1.84,1.84,0,0,0-.69-.72,1.88,1.88,0,0,0-1-.25,1.91,1.91,0,0,0-1,.25,1.84,1.84,0,0,0-.69.72,2.26,2.26,0,0,0-.26,1.12,2.3,2.3,0,0,0,.26,1.11,1.84,1.84,0,0,0,.69.72A1.91,1.91,0,0,0,211.21,50.8Z"/><path class="cls-2" d="M221.66,44.84a3.58,3.58,0,0,1,1.6.35,2.62,2.62,0,0,1,1.11,1.1,3.85,3.85,0,0,1,.41,1.88v4.31H222.6v-4a2,2,0,0,0-.4-1.35,1.46,1.46,0,0,0-1.13-.43,2,2,0,0,0-.93.21,1.56,1.56,0,0,0-.65.67,2.56,2.56,0,0,0-.23,1.15v3.72h-2.18V45h2.09V47l-.4-.63a2.75,2.75,0,0,1,1.17-1.17A3.55,3.55,0,0,1,221.66,44.84Z"/><path class="cls-2" d="M88.63,65.26v-9.8h4.24a5.41,5.41,0,0,1,2.27.43,3.24,3.24,0,0,1,1.47,1.22A3.42,3.42,0,0,1,97.13,59a3.35,3.35,0,0,1-.52,1.89,3.24,3.24,0,0,1-1.47,1.22,5.41,5.41,0,0,1-2.27.43h-3l1-1v3.72Zm2.27-3.47-1-1.08h2.86a2.35,2.35,0,0,0,1.57-.45A1.56,1.56,0,0,0,94.83,59a1.59,1.59,0,0,0-.51-1.26,2.35,2.35,0,0,0-1.57-.45H89.89l1-1.08Z"/><path class="cls-2" d="M98.59,65.26V57.73h2.08v2.13l-.29-.62A2.41,2.41,0,0,1,101.46,58a3.68,3.68,0,0,1,1.8-.41v2l-.25,0h-.24a1.85,1.85,0,0,0-2,2.1v3.55Z"/><path class="cls-2" d="M108.08,65.37a4.39,4.39,0,0,1-2.14-.5,3.91,3.91,0,0,1-1.47-1.38,4,4,0,0,1,0-4,3.83,3.83,0,0,1,1.47-1.38,4.9,4.9,0,0,1,4.27,0,3.88,3.88,0,0,1,1.47,1.37,4.06,4.06,0,0,1,0,4,3.91,3.91,0,0,1-1.47,1.38A4.41,4.41,0,0,1,108.08,65.37Zm0-1.79a1.91,1.91,0,0,0,1-.25,1.75,1.75,0,0,0,.68-.72A2.3,2.3,0,0,0,110,61.5a2.26,2.26,0,0,0-.26-1.12,1.75,1.75,0,0,0-.68-.72,1.91,1.91,0,0,0-1-.25,1.88,1.88,0,0,0-1,.25,1.84,1.84,0,0,0-.69.72,2.16,2.16,0,0,0-.26,1.12,2.2,2.2,0,0,0,.26,1.11,1.84,1.84,0,0,0,.69.72A1.88,1.88,0,0,0,108.08,63.58Z"/><path class="cls-2" d="M117.3,65.37a4.65,4.65,0,0,1-2.17-.49,3.91,3.91,0,0,1-1.49-5.39,3.82,3.82,0,0,1,1.49-1.38,4.65,4.65,0,0,1,2.17-.49,4.18,4.18,0,0,1,2.08.49,3.11,3.11,0,0,1,1.3,1.43l-1.69.91a2,2,0,0,0-.74-.79,1.86,1.86,0,0,0-1-.25,2,2,0,0,0-1,.25,1.8,1.8,0,0,0-.7.72,2.16,2.16,0,0,0-.26,1.12,2.21,2.21,0,0,0,.26,1.12,1.84,1.84,0,0,0,.7.71,2,2,0,0,0,1,.25,2,2,0,0,0,1-.24,2,2,0,0,0,.74-.79l1.69.92a3.06,3.06,0,0,1-1.3,1.41A4.18,4.18,0,0,1,117.3,65.37Z"/><path class="cls-2" d="M125.58,65.37a4.8,4.8,0,0,1-2.26-.5,3.89,3.89,0,0,1-1.51-5.38,3.72,3.72,0,0,1,1.43-1.38,4.24,4.24,0,0,1,2.06-.49,4.09,4.09,0,0,1,2,.47,3.44,3.44,0,0,1,1.41,1.34,4,4,0,0,1,.52,2.09c0,.09,0,.18,0,.29a2.66,2.66,0,0,1,0,.3h-6.12V60.84h5l-.84.38a2.09,2.09,0,0,0-.24-1,1.8,1.8,0,0,0-.66-.68,1.92,1.92,0,0,0-1-.24,2,2,0,0,0-1,.24,1.78,1.78,0,0,0-.67.69,2.13,2.13,0,0,0-.24,1v.34a2,2,0,0,0,.28,1.08,1.68,1.68,0,0,0,.77.72,2.64,2.64,0,0,0,1.16.24,2.83,2.83,0,0,0,1.06-.18,2.58,2.58,0,0,0,.83-.54l1.17,1.26a3.41,3.41,0,0,1-1.31.9A4.78,4.78,0,0,1,125.58,65.37Z"/><path class="cls-2" d="M133.21,65.37a7.13,7.13,0,0,1-1.86-.23,4.5,4.5,0,0,1-1.4-.58l.72-1.57a5,5,0,0,0,1.23.53,5.25,5.25,0,0,0,1.39.2,2.28,2.28,0,0,0,1.07-.18.56.56,0,0,0,.32-.5.42.42,0,0,0-.25-.4,2.16,2.16,0,0,0-.65-.21l-.89-.14a8.73,8.73,0,0,1-1-.19,3.07,3.07,0,0,1-.9-.35,1.92,1.92,0,0,1-.65-.65,2,2,0,0,1-.24-1.05,2.09,2.09,0,0,1,.41-1.26,2.82,2.82,0,0,1,1.2-.86,5,5,0,0,1,1.87-.31,7.05,7.05,0,0,1,1.57.17,4.06,4.06,0,0,1,1.33.49l-.73,1.55a3.84,3.84,0,0,0-1.09-.44,5.1,5.1,0,0,0-1.08-.12,2.07,2.07,0,0,0-1.06.2.58.58,0,0,0-.34.5.46.46,0,0,0,.25.42,2.14,2.14,0,0,0,.65.22c.27.06.57.11.89.15a8.3,8.3,0,0,1,1,.19,3.08,3.08,0,0,1,.89.36,1.78,1.78,0,0,1,.65.63,1.88,1.88,0,0,1,.25,1,2,2,0,0,1-.42,1.24,2.78,2.78,0,0,1-1.21.85A5.41,5.41,0,0,1,133.21,65.37Z"/><path class="cls-2" d="M140.64,65.37a7.05,7.05,0,0,1-1.85-.23,4.57,4.57,0,0,1-1.41-.58l.73-1.57a4.72,4.72,0,0,0,1.22.53,5.26,5.26,0,0,0,1.4.2,2.31,2.31,0,0,0,1.07-.18.55.55,0,0,0,.31-.5.43.43,0,0,0-.24-.4,2.25,2.25,0,0,0-.65-.21l-.89-.14a8.9,8.9,0,0,1-1-.19,3,3,0,0,1-.89-.35,1.84,1.84,0,0,1-.65-.65,1.94,1.94,0,0,1-.25-1.05,2,2,0,0,1,.42-1.26,2.72,2.72,0,0,1,1.19-.86,5.07,5.07,0,0,1,1.88-.31,7.18,7.18,0,0,1,1.57.17,4.15,4.15,0,0,1,1.33.49l-.73,1.55a3.9,3.9,0,0,0-1.1-.44,5.08,5.08,0,0,0-1.07-.12,2.11,2.11,0,0,0-1.07.2.57.57,0,0,0-.33.5.45.45,0,0,0,.24.42,2.24,2.24,0,0,0,.65.22c.28.06.57.11.89.15a8.47,8.47,0,0,1,1,.19,3.32,3.32,0,0,1,.89.36,1.86,1.86,0,0,1,.65.63,2.14,2.14,0,0,1-.17,2.28,2.84,2.84,0,0,1-1.21.85A5.47,5.47,0,0,1,140.64,65.37Z"/><path class="cls-2" d="M146.63,56.68a1.42,1.42,0,0,1-1-.35,1.13,1.13,0,0,1-.37-.87,1.16,1.16,0,0,1,.37-.87,1.58,1.58,0,0,1,2,0,1,1,0,0,1,.38.85,1.19,1.19,0,0,1-.37.9A1.35,1.35,0,0,1,146.63,56.68Zm-1.09,8.58V57.73h2.19v7.53Z"/><path class="cls-2" d="M154.33,57.62a3.63,3.63,0,0,1,1.61.35,2.62,2.62,0,0,1,1.11,1.1,3.85,3.85,0,0,1,.41,1.88v4.31h-2.19v-4a1.93,1.93,0,0,0-.4-1.35,1.43,1.43,0,0,0-1.12-.43,2,2,0,0,0-.93.21,1.56,1.56,0,0,0-.65.67,2.56,2.56,0,0,0-.23,1.15v3.72h-2.18V57.73h2.08v2.09l-.39-.63A2.79,2.79,0,0,1,152.61,58,3.61,3.61,0,0,1,154.33,57.62Z"/><path class="cls-2" d="M162.69,64.9a3.83,3.83,0,0,1-1.89-.46,3.48,3.48,0,0,1-1.87-3.18,3.59,3.59,0,0,1,.51-1.93,3.44,3.44,0,0,1,1.36-1.26,3.94,3.94,0,0,1,1.89-.45,3.59,3.59,0,0,1,1.68.38,2.68,2.68,0,0,1,1.14,1.19,4.63,4.63,0,0,1,.4,2.07,4.57,4.57,0,0,1-.4,2.05,2.71,2.71,0,0,1-1.14,1.2A3.47,3.47,0,0,1,162.69,64.9Zm.34,3.19a8.17,8.17,0,0,1-2.05-.26,4.36,4.36,0,0,1-1.65-.78l.87-1.56a3.72,3.72,0,0,0,1.21.62,4.93,4.93,0,0,0,1.45.23,2.31,2.31,0,0,0,1.69-.52,2.07,2.07,0,0,0,.52-1.54V63.15l.14-1.89,0-1.91V57.73h2.08V64a4,4,0,0,1-1.1,3.1A4.49,4.49,0,0,1,163,68.09Zm.1-5a2.13,2.13,0,0,0,1-.24,1.69,1.69,0,0,0,.7-.65,1.81,1.81,0,0,0,.25-1,1.83,1.83,0,0,0-.25-1,1.73,1.73,0,0,0-.7-.64,2.4,2.4,0,0,0-2.05,0,1.8,1.8,0,0,0-.7.64,1.75,1.75,0,0,0-.26,1,1.73,1.73,0,0,0,.26,1,1.75,1.75,0,0,0,.7.65A2.15,2.15,0,0,0,163.13,63.11Z"/><path class="cls-2" d="M176.62,65.43a8,8,0,0,1-2.25-.32,5.42,5.42,0,0,1-1.74-.81l.77-1.71a5.91,5.91,0,0,0,3.24,1,3.57,3.57,0,0,0,1.08-.13,1.33,1.33,0,0,0,.61-.37.87.87,0,0,0,.2-.55.74.74,0,0,0-.31-.62,2.54,2.54,0,0,0-.81-.38c-.34-.1-.71-.19-1.12-.28s-.81-.2-1.21-.33a5.44,5.44,0,0,1-1.12-.5,2.57,2.57,0,0,1-.82-.82,2.36,2.36,0,0,1-.31-1.28,2.77,2.77,0,0,1,.45-1.54,3.09,3.09,0,0,1,1.38-1.1,5.5,5.5,0,0,1,2.3-.42,8,8,0,0,1,1.82.22,5.35,5.35,0,0,1,1.58.65l-.7,1.72a6.18,6.18,0,0,0-1.37-.58,5.36,5.36,0,0,0-1.35-.19,3,3,0,0,0-1.07.16,1.28,1.28,0,0,0-.61.4.91.91,0,0,0-.18.56.73.73,0,0,0,.31.61,2.34,2.34,0,0,0,.81.37c.34.1.71.19,1.12.28s.81.2,1.21.33a4.53,4.53,0,0,1,1.12.49,2.44,2.44,0,0,1,.82.81,2.34,2.34,0,0,1,.31,1.27,2.61,2.61,0,0,1-.46,1.51A3.24,3.24,0,0,1,178.94,65,5.56,5.56,0,0,1,176.62,65.43Z"/><path class="cls-2" d="M183,68.09a3.85,3.85,0,0,1-1.16-.18,2.49,2.49,0,0,1-.94-.51l.8-1.55a1.8,1.8,0,0,0,.58.35,1.93,1.93,0,0,0,.65.13,1.21,1.21,0,0,0,.74-.22,2,2,0,0,0,.49-.72l.4-.93.16-.23,2.71-6.5h2.1l-3.41,8a4.65,4.65,0,0,1-.83,1.43,2.57,2.57,0,0,1-1,.73A3.52,3.52,0,0,1,183,68.09Zm1.29-2.53-3.36-7.83h2.25l2.61,6.3Z"/><path class="cls-2" d="M192.83,65.37a7.05,7.05,0,0,1-1.85-.23,4.68,4.68,0,0,1-1.41-.58L190.3,63a4.8,4.8,0,0,0,1.23.53,5.19,5.19,0,0,0,1.39.2,2.31,2.31,0,0,0,1.07-.18.55.55,0,0,0,.31-.5.43.43,0,0,0-.24-.4,2.16,2.16,0,0,0-.65-.21l-.89-.14a8.3,8.3,0,0,1-1-.19,3,3,0,0,1-.9-.35,1.84,1.84,0,0,1-.65-.65,2.2,2.2,0,0,1,.17-2.31,2.72,2.72,0,0,1,1.19-.86,5.07,5.07,0,0,1,1.88-.31,7.12,7.12,0,0,1,1.57.17,4.15,4.15,0,0,1,1.33.49l-.73,1.55a3.78,3.78,0,0,0-1.1-.44,5,5,0,0,0-1.07-.12,2,2,0,0,0-1.06.2.56.56,0,0,0-.34.5.44.44,0,0,0,.25.42,2.14,2.14,0,0,0,.65.22c.27.06.56.11.89.15a8.73,8.73,0,0,1,1,.19,3.32,3.32,0,0,1,.89.36,1.86,1.86,0,0,1,.65.63,1.88,1.88,0,0,1,.25,1,2,2,0,0,1-.42,1.24,2.78,2.78,0,0,1-1.21.85A5.47,5.47,0,0,1,192.83,65.37Z"/><path class="cls-2" d="M196.84,59.58V57.9h5.22v1.68Zm4,5.79a2.94,2.94,0,0,1-2.07-.68,2.61,2.61,0,0,1-.74-2V56.06h2.18v6.58a1,1,0,0,0,.26.74.9.9,0,0,0,.68.26,1.42,1.42,0,0,0,.88-.28l.59,1.54a2.16,2.16,0,0,1-.8.35A4,4,0,0,1,200.81,65.37Z"/><path class="cls-2" d="M207.32,65.37a4.82,4.82,0,0,1-2.26-.5,3.66,3.66,0,0,1-2-3.37,3.81,3.81,0,0,1,.52-2A3.75,3.75,0,0,1,205,58.11a4.2,4.2,0,0,1,2-.49,4.13,4.13,0,0,1,2,.47,3.56,3.56,0,0,1,1.41,1.34,4.07,4.07,0,0,1,.51,2.09c0,.09,0,.18,0,.29s0,.21,0,.3H204.8V60.84h5l-.84.38a2.21,2.21,0,0,0-.23-1,1.8,1.8,0,0,0-.66-.68,2,2,0,0,0-1-.24,2,2,0,0,0-1,.24,1.82,1.82,0,0,0-.66.69,2.13,2.13,0,0,0-.24,1v.34a2.11,2.11,0,0,0,.27,1.08,1.73,1.73,0,0,0,.77.72,2.66,2.66,0,0,0,1.17.24,2.91,2.91,0,0,0,1.06-.18,2.58,2.58,0,0,0,.83-.54l1.16,1.26a3.37,3.37,0,0,1-1.3.9A4.8,4.8,0,0,1,207.32,65.37Z"/><path class="cls-2" d="M222.07,57.62a3.5,3.5,0,0,1,1.58.35,2.59,2.59,0,0,1,1.1,1.1,4,4,0,0,1,.4,1.88v4.31H223v-4a2,2,0,0,0-.38-1.35,1.32,1.32,0,0,0-1.06-.43,1.7,1.7,0,0,0-.85.21,1.46,1.46,0,0,0-.59.66,2.48,2.48,0,0,0-.21,1.1v3.78h-2.19v-4a2,2,0,0,0-.37-1.35,1.3,1.3,0,0,0-1.05-.43,1.74,1.74,0,0,0-.86.21,1.52,1.52,0,0,0-.59.66,2.48,2.48,0,0,0-.21,1.1v3.78h-2.18V57.73h2.09v2.06l-.4-.6A2.64,2.64,0,0,1,215.23,58a3.29,3.29,0,0,1,1.64-.4,3.19,3.19,0,0,1,1.82.52,2.54,2.54,0,0,1,1,1.61l-.77-.21a3.05,3.05,0,0,1,1.21-1.4A3.54,3.54,0,0,1,222.07,57.62Z"/></g></g></svg>